<?xml version="1.0" encoding="utf-8"?>
<!-- Generator: Adobe Illustrator 15.0.0, SVG Export Plug-In . SVG Version: 6.00 Build 0)  -->
<!DOCTYPE svg PUBLIC "-//W3C//DTD SVG 1.1//EN" "http://www.w3.org/Graphics/SVG/1.1/DTD/svg11.dtd">
<svg version="1.1" id="Capa_1" xmlns="http://www.w3.org/2000/svg" xmlns:xlink="http://www.w3.org/1999/xlink" x="0px" y="0px"
	 width="23.875px" height="23.875px" viewBox="-2.958 -4.916 23.875 23.875" enable-background="new -2.958 -4.916 23.875 23.875"
	 xml:space="preserve">
<g>
	<path fill="#FFFFFF" stroke="#FFFFFF" stroke-width="0.75" stroke-miterlimit="10" d="M9.047-4.412
		C2.694-4.412-2.458,0.74-2.458,7.094c-0.001,6.354,5.151,11.507,11.505,11.507c6.354,0,11.507-5.153,11.507-11.506
		C20.554,0.74,15.401-4.412,9.047-4.412z M9.047,17.061c-5.493,0-9.963-4.474-9.963-9.965c0-5.493,4.47-9.964,9.963-9.964
		c5.494-0.001,9.966,4.469,9.966,9.964C19.013,12.587,14.541,17.061,9.047,17.061z"/>
	<path fill="#FFFFFF" stroke="#FFFFFF" stroke-width="0.75" stroke-miterlimit="10" d="M13.448,4.573L8.993,9.029L4.535,4.573
		c-0.3-0.301-0.788-0.301-1.089,0c-0.301,0.301-0.301,0.79,0,1.089l5,4.999c0.149,0.154,0.348,0.227,0.547,0.224
		c0.197,0,0.396-0.071,0.547-0.224l4.998-4.999c0.301-0.3,0.301-0.788,0-1.089C14.237,4.272,13.749,4.272,13.448,4.573z"/>
</g>
</svg>
