<?xml version="1.0" encoding="utf-8"?>
<!-- Generator: Adobe Illustrator 15.0.0, SVG Export Plug-In . SVG Version: 6.00 Build 0)  -->
<!DOCTYPE svg PUBLIC "-//W3C//DTD SVG 1.1//EN" "http://www.w3.org/Graphics/SVG/1.1/DTD/svg11.dtd">
<svg version="1.1" id="Layer_1" xmlns="http://www.w3.org/2000/svg" xmlns:xlink="http://www.w3.org/1999/xlink" x="0px" y="0px"
	 width="145.5px" height="145.5px" viewBox="0 -45.5 145.5 145.5" enable-background="new 0 -45.5 145.5 145.5"
	 xml:space="preserve">
<g>
	<path fill="#FCCD7A" d="M44.224,2.82H10.274c-3.502,0-6.35,2.783-6.35,6.208v65.678c0,3.424,2.848,6.209,6.35,6.209h33.949
		c3.501,0,6.35-2.783,6.35-6.209V9.027C50.573,5.603,47.725,2.82,44.224,2.82z M46.365,74.706c0,1.105-0.961,2-2.141,2H10.274
		c-1.181,0-2.141-0.895-2.141-2v-9.923h38.231V74.706z M46.365,67.294H8.133V15.915h38.231V67.294z M46.365,11.707H8.133V9.028
		c0-1.104,0.96-2,2.141-2h33.949c1.18,0,2.141,0.896,2.141,2V11.707z"/>
</g>
<path fill="#CCCCCC" d="M133.696,57.514c0,1.032-0.84,1.872-1.868,1.872H53.859v8.961h23.083v3.921H63.781
	c-2.471,0-4.48,2.009-4.48,4.48c0,2.47,2.01,4.48,4.48,4.48h35.005c2.469,0,4.48-2.011,4.48-4.48c0-2.472-2.012-4.48-4.48-4.48
	H85.904v-3.921h45.924c5.972,0,10.829-4.861,10.829-10.833V-7.447c0-5.973-4.861-10.832-10.829-10.832H31.02
	c-5.973,0-10.83,4.862-10.83,10.834v8.02h8.961v-8.02c0-1.033,0.84-1.873,1.868-1.873h100.809c1.03,0,1.868,0.84,1.868,1.873"/>
<rect x="6.955" y="6.041" fill="#FCCD7A" width="40.512" height="7.655"/>
<rect x="6.955" y="65.783" fill="#FCCD7A" width="40.512" height="10.923"/>
<path fill="#FFFFFF" d="M27.622,68.135c2.58,0,4.671,2.089,4.671,4.669c0,2.582-2.092,4.67-4.671,4.67
	c-2.578,0-4.669-2.088-4.669-4.67C22.952,70.224,25.043,68.135,27.622,68.135z"/>
</svg>
