<?xml version="1.0" encoding="utf-8"?>
<!-- Generator: Adobe Illustrator 15.0.0, SVG Export Plug-In . SVG Version: 6.00 Build 0)  -->
<!DOCTYPE svg PUBLIC "-//W3C//DTD SVG 1.1//EN" "http://www.w3.org/Graphics/SVG/1.1/DTD/svg11.dtd">
<svg version="1.1" id="Layer_1" xmlns="http://www.w3.org/2000/svg" xmlns:xlink="http://www.w3.org/1999/xlink" x="0px" y="0px"
	 width="145.5px" height="145.5px" viewBox="0 0 145.5 145.5" enable-background="new 0 0 145.5 145.5" xml:space="preserve">
<path fill="#CCCCCC" d="M125.863,115.311c-3.615-3.986-9.488-5.934-15.053-5.934H99.088l-7.695-7.418
	c-5.656,4.635-12.519,7.324-19.937,7.324c-6.955,0-13.538-2.41-18.916-6.584l-6.862,6.584h-12.2c-6.213,0-12.853,1.83-16.654,6.188
	c-7.206,7.207-7.362,18.334-6.527,26.771h123.51C133.807,131.955,133.453,122.9,125.863,115.311z"/>
<path fill="#CCCCCC" d="M39.317,57.264c-2.226,1.854-3.709,4.822-3.709,8.252c0,5.1,3.337,9.272,7.603,10.015
	c0.927,7.695,4.08,14.465,8.81,19.473c1.02,1.02,2.039,2.039,3.152,2.875c1.391,1.111,2.874,2.039,4.45,2.873
	c3.524,1.854,7.418,2.875,11.591,2.875s8.067-1.021,11.591-2.875c1.577-0.834,3.062-1.762,4.451-2.873
	c1.112-0.836,2.133-1.854,3.152-2.875c4.637-5.008,7.882-11.684,8.717-19.38c0.093,0,0.186,0,0.277,0
	c4.914,0,8.81-4.544,8.81-10.107c0-3.431-1.483-6.398-3.709-8.252L39.317,57.264L39.317,57.264z"/>
<path fill="#A7E4C3" d="M105.093,37.792c-2.875-9.551-10.479-19.287-20.122-24.294v21.791v2.967c0,0.186,0,0.278,0,0.371
	c-0.093,1.02-0.277,1.947-0.74,2.874c-1.205,2.319-3.617,3.988-6.397,3.988H76.35H66.148c-2.597,0-4.915-1.391-6.12-3.431
	c-0.557-0.834-0.835-1.762-1.021-2.782c-0.093-0.371-0.093-0.649-0.093-1.02v-2.597V13.405c-9.643,5.1-17.247,14.836-20.121,24.387
	l-0.649,2.04H32.86v11.591h5.842h8.159h3.431h44.692h3.34h12.636v-0.556V39.832h-5.218L105.093,37.792z"/>
<path fill="#A7E4C3" d="M66.114,42.614h11.591c1.669,0,3.061-0.927,3.802-2.318c0.371-0.649,0.558-1.298,0.558-2.04v-0.834v-3.431
	V12.108V8.955V7.749c0-0.742-0.187-1.391-0.371-2.04C80.857,3.577,78.727,2,76.314,2H66.115c-2.226,0-4.08,1.669-4.266,3.802
	c0,0.185-0.092,0.371-0.092,0.556v2.596v3.153v22.254v3.523v0.371c0,0.927,0.277,1.762,0.741,2.503
	C63.333,41.872,64.631,42.614,66.114,42.614z"/>
</svg>
