<?xml version="1.0" encoding="utf-8"?>
<!-- Generator: Adobe Illustrator 15.0.0, SVG Export Plug-In . SVG Version: 6.00 Build 0)  -->
<!DOCTYPE svg PUBLIC "-//W3C//DTD SVG 1.1//EN" "http://www.w3.org/Graphics/SVG/1.1/DTD/svg11.dtd">
<svg version="1.1" id="Layer_1" xmlns="http://www.w3.org/2000/svg" xmlns:xlink="http://www.w3.org/1999/xlink" x="0px" y="0px"
	 width="145.5px" height="145.5px" viewBox="0 -45.5 145.5 145.5" enable-background="new 0 -45.5 145.5 145.5"
	 xml:space="preserve">
<path fill="#CCCCCC" d="M132.657,24.553h-6.515c-1.222-2.622-2.709-5.13-4.458-7.496c2.194-4.973,5.958-11.075,8.519-15.019
	c0.577-0.893,0.629-2.032,0.138-2.973c-0.497-0.942-1.465-1.542-2.528-1.574c-10.263-0.289-18.078,3.573-21.738,5.805
	c-9.072-5.281-20.118-8.389-32.043-8.389c-28.338,0-51.735,17.511-55.356,40.196c-0.436-0.127-0.887-0.262-1.307-0.48
	c-0.333-0.15-0.67-0.298-1.016-0.451l-0.976-0.59c-0.72-0.359-1.254-0.952-1.946-1.438c-0.578-0.585-1.188-1.188-1.742-1.846
	c-0.48-0.705-1.043-1.38-1.476-2.119c-0.409-0.773-0.808-1.521-1.183-2.228c-0.296-0.771-0.573-1.5-0.832-2.174
	c-0.587-1.355-0.732-2.598-0.994-3.44c-0.21-0.864-0.333-1.356-0.333-1.356L4.96,18.979c0,0-0.071,0.525-0.198,1.443
	c-0.077,0.924-0.418,2.253-0.382,3.896c-0.009,0.832-0.02,1.732-0.031,2.688c0.103,0.971,0.213,1.996,0.325,3.059
	c0.162,1.069,0.485,2.165,0.756,3.313c0.355,1.122,0.82,2.255,1.309,3.394c0.623,1.061,1.136,2.249,1.919,3.232
	c0.378,0.51,0.751,1.017,1.121,1.519c0.421,0.461,0.84,0.917,1.251,1.365c0.817,0.93,1.761,1.641,2.627,2.391
	c0.913,0.658,1.787,1.322,2.658,1.807c0.896,0.551,1.748,0.986,2.531,1.345c1.687,8.99,6.495,17.115,13.467,23.609H32.3v18.145
	c0,4.099,3.321,7.42,7.419,7.42H52.61c4.098,0,7.42-3.321,7.42-7.42v-4.08c4.477,0.961,9.168,1.472,14.003,1.472
	c4.768,0,9.396-0.502,13.811-1.43v4.038c0,4.099,3.322,7.42,7.423,7.42h12.887c4.099,0,7.419-3.321,7.419-7.42V72.209
	c5.115-4.713,9.066-10.306,11.514-16.466h5.572c4.102,0,7.422-3.323,7.422-7.419V31.973
	C140.078,27.874,136.755,24.553,132.657,24.553z M99.469,14.999c-0.676,1.195-1.919,1.863-3.197,1.865
	c-0.617,0-1.236-0.154-1.808-0.477c-20.524-11.612-41.528-0.116-41.736,0.002c-1.767,0.988-4.001,0.364-4.998-1.401
	c-0.993-1.764-0.374-3.995,1.389-4.995c1-0.562,24.76-13.697,48.959,0C99.845,10.995,100.469,13.235,99.469,14.999z"/>
<circle fill="#FCCD7A" stroke="#F8F8F8" stroke-width="2" stroke-miterlimit="10" cx="60.223" cy="-5.093" r="15.582"/>
<circle fill="#FCCD7A" stroke="#F8F8F8" stroke-width="2" stroke-miterlimit="10" cx="79.561" cy="-27.4" r="12.971"/>
<circle fill="#FCCD7A" stroke="#F8F8F8" stroke-width="2" stroke-miterlimit="10" cx="57.892" cy="-30.472" r="9.366"/>
</svg>
