<?xml version="1.0" encoding="utf-8"?>
<!-- Generator: Adobe Illustrator 15.0.0, SVG Export Plug-In . SVG Version: 6.00 Build 0)  -->
<!DOCTYPE svg PUBLIC "-//W3C//DTD SVG 1.1//EN" "http://www.w3.org/Graphics/SVG/1.1/DTD/svg11.dtd">
<svg version="1.1" id="Layer_1" xmlns="http://www.w3.org/2000/svg" xmlns:xlink="http://www.w3.org/1999/xlink" x="0px" y="0px"
	 width="145.5px" height="145.5px" viewBox="0 -45.5 145.5 145.5" enable-background="new 0 -45.5 145.5 145.5"
	 xml:space="preserve">
<path fill="#CCCCCC" d="M125.864,70.132c-3.616-3.987-9.489-5.935-15.053-5.935H99.088l-7.696-7.418
	c-5.656,4.636-12.518,7.325-19.936,7.325c-6.955,0-13.538-2.411-18.916-6.584l-6.862,6.584h-12.2c-6.213,0-12.853,1.83-16.654,6.188
	c-7.206,7.206-7.362,18.333-6.527,26.771h123.51C133.807,86.775,133.453,77.72,125.864,70.132z"/>
<path fill="#CCCCCC" d="M39.317,12.085c-2.226,1.854-3.709,4.822-3.709,8.252c0,5.1,3.337,9.272,7.603,10.015
	c0.927,7.696,4.08,14.465,8.81,19.472c1.02,1.02,2.039,2.04,3.152,2.875c1.391,1.112,2.874,2.04,4.45,2.874
	c3.524,1.854,7.418,2.875,11.591,2.875s8.067-1.021,11.591-2.875c1.577-0.834,3.061-1.762,4.451-2.874
	c1.112-0.835,2.133-1.854,3.152-2.875c4.637-5.007,7.882-11.684,8.717-19.379c0.093,0,0.186,0,0.277,0
	c4.915,0,8.81-4.544,8.81-10.107c0-3.431-1.483-6.398-3.709-8.252H39.317L39.317,12.085z"/>
<path fill="#FCCD7A" d="M105.093-7.387c-2.875-9.551-10.479-19.287-20.122-24.294v21.791v2.967c0,0.186,0,0.278,0,0.371
	c-0.093,1.02-0.277,1.947-0.741,2.874c-1.205,2.319-3.616,3.988-6.398,3.988h-1.483H66.148c-2.597,0-4.915-1.391-6.12-3.431
	c-0.557-0.834-0.835-1.762-1.021-2.782c-0.093-0.371-0.093-0.649-0.093-1.02V-9.52v-22.254c-9.643,5.1-17.247,14.836-20.121,24.387
	l-0.649,2.04H32.86V6.244h5.842h8.159h3.431h44.693h3.339h12.636V5.688V-5.347h-5.218L105.093-7.387z"/>
<path fill="#FCCD7A" d="M66.114-2.565h11.591c1.669,0,3.06-0.927,3.802-2.318c0.371-0.649,0.557-1.298,0.557-2.04v-0.834v-3.431
	v-21.883v-3.153v-1.206c0-0.742-0.186-1.391-0.371-2.04c-0.835-2.132-2.967-3.709-5.378-3.709h-10.2
	c-2.226,0-4.08,1.669-4.266,3.802c0,0.185-0.092,0.371-0.092,0.556v2.596v3.153v22.254v3.523v0.371c0,0.927,0.277,1.762,0.741,2.503
	C63.333-3.307,64.631-2.565,66.114-2.565z"/>
</svg>
