<?xml version="1.0" encoding="utf-8"?>
<!-- Generator: Adobe Illustrator 15.0.0, SVG Export Plug-In . SVG Version: 6.00 Build 0)  -->
<!DOCTYPE svg PUBLIC "-//W3C//DTD SVG 1.1//EN" "http://www.w3.org/Graphics/SVG/1.1/DTD/svg11.dtd">
<svg version="1.1" id="Layer_1" xmlns="http://www.w3.org/2000/svg" xmlns:xlink="http://www.w3.org/1999/xlink" x="0px" y="0px"
	 width="145.5px" height="145.5px" viewBox="0 0 145.5 145.5" enable-background="new 0 0 145.5 145.5" xml:space="preserve">
<g>
	<g>
		<path fill="#CCCCCC" stroke="#CCCCCC" stroke-width="2" stroke-miterlimit="10" d="M73.25,139.5C35.618,139.5,5,108.884,5,71.25
			C5,33.617,35.618,3,73.25,3c37.631,0,68.25,30.617,68.25,68.25C141.5,108.884,110.881,139.5,73.25,139.5z M73.25,7.404
			c-35.207,0-63.846,28.641-63.846,63.846c0,35.204,28.639,63.848,63.846,63.848c35.205,0,63.848-28.644,63.848-63.848
			C137.098,36.045,108.455,7.404,73.25,7.404z"/>
	</g>
</g>
<g>
	<polygon fill="#A7E4C3" stroke="#A7E4C3" stroke-width="2" stroke-miterlimit="10" points="60.633,100.361 36.235,75.963 
		39.347,72.851 60.633,94.135 106.962,47.808 110.075,50.921 	"/>
</g>
</svg>
