<?xml version="1.0" encoding="utf-8"?>
<!-- Generator: Adobe Illustrator 15.0.0, SVG Export Plug-In . SVG Version: 6.00 Build 0)  -->
<!DOCTYPE svg PUBLIC "-//W3C//DTD SVG 1.1//EN" "http://www.w3.org/Graphics/SVG/1.1/DTD/svg11.dtd">
<svg version="1.1" id="Layer_1" xmlns="http://www.w3.org/2000/svg" xmlns:xlink="http://www.w3.org/1999/xlink" x="0px" y="0px"
	 width="145.5px" height="145.5px" viewBox="0 -45.5 145.5 145.5" enable-background="new 0 -45.5 145.5 145.5"
	 xml:space="preserve">
<g>
	<path fill="#CCCCCC" d="M49.601-9.029c4.716,0.494,9.805,2.509,13.58,5.721c-0.885-2.639-0.974-5.244-0.401-6.795
		c0.343-0.925,0.6-1.959,0.395-3.047c-0.713-4.062-5.03-7.346-9.72-7.346c-4.662,0-7.857,3.284-7.13,7.346
		c0.015,0.059,0.052,0.116,0.066,0.173c0.037,0.094-3.666,0.794-6.946,3.693c-0.272,0.241-0.728,0.772-1.253,1.411
		C41.192-8.904,44.953-9.499,49.601-9.029z"/>
	<path fill="#CCCCCC" d="M139.616,38.08c-0.139-0.316-0.286-0.625-0.437-0.933c-0.236-0.51-2.902-4.334-5.933-8.551
		c0,0-11.259-16.651-19.336-27.957c-1.899-1.938-6.91-7.012-17.393-5.925C90.59-4.668,83.651-1.145,81.406,4.253
		c-0.298,2.013-0.598,3.641-0.861,3.641c-0.642,0-1.386-2.347-3.183-4.136c-1.062-1.055-2.675-1.709-4.298-1.709
		c-1.619,0-3.15,0.654-4.202,1.712c-1.8,1.796-2.902,4.133-3.534,4.133c-0.12,0-0.33-1.081-0.58-2.554
		C63.065-0.682,55.54-4.629,49.21-5.286C38.992-6.346,33.993-1.561,31.99,0.47c-8.044,11.284-19.395,28.132-19.395,28.132
		c-3.038,4.208-5.7,8.042-5.936,8.549c-0.147,0.308-0.286,0.617-0.415,0.947c-1.499,3.589-2.344,7.512-2.344,11.63
		c0,16.824,13.014,30.421,29.834,30.421c16.794,0,29.782-13.598,29.782-30.421v-4.665c0-2.585,1.966-6.34,4.317-7.214
		c1.324-0.5,3.147-0.771,4.774-0.771c1.623,0,3.912,0.271,5.234,0.771c2.355,0.874,4.48,4.629,4.48,7.214c0,2.582,0,4.665,0,4.665
		c0,16.824,13.004,30.421,29.794,30.421c16.791,0,29.812-13.598,29.812-30.421C141.927,45.61,141.108,41.688,139.616,38.08z
		 M72.768,27.754c-4.524,0-8.298-3.273-5.789-5.789c1.487-1.482,3.529-2.4,5.803-2.4c2.252,0,4.29,0.918,5.771,2.4
		C81.066,24.475,77.286,27.754,72.768,27.754z M112.412,70.262c-11.618,0-21.088-9.47-21.088-21.077
		c0-11.623,9.484-21.077,21.088-21.077c11.63,0,21.062,9.454,21.062,21.077C133.471,60.792,124.038,70.262,112.412,70.262z"/>
	<path fill="#CCCCCC" d="M82.667-3.409c3.764-3.155,8.798-5.133,13.462-5.624c4.68-0.474,8.46,0.136,11.469,1.181
		c-0.58-0.714-1.077-1.293-1.363-1.541c-3.219-2.81-6.817-3.495-6.792-3.589c0.022-0.057,0.036-0.114,0.052-0.173
		c0.723-4.059-2.498-7.343-7.196-7.343c-4.668,0-9.058,3.284-9.781,7.346c-0.199,1.084-0.096,2.118,0.234,3.047
		C83.317-8.566,83.501-6.007,82.667-3.409z"/>
</g>
<path fill="#FCCD7A" d="M33.848,71.798c-11.902,0-21.54-9.671-21.54-21.552c0-11.873,9.638-21.531,21.54-21.531
	c11.867,0,21.527,9.658,21.527,21.531C55.379,62.123,45.715,71.798,33.848,71.798z"/>
<path fill="#FCCD7A" d="M112.55,70.798c-11.902,0-21.541-9.671-21.541-21.552c0-11.873,9.639-21.531,21.541-21.531
	c11.865,0,21.525,9.658,21.525,21.531C134.078,61.123,124.415,70.798,112.55,70.798z"/>
</svg>
