<?xml version="1.0" encoding="utf-8"?>
<!-- Generator: Adobe Illustrator 15.0.0, SVG Export Plug-In . SVG Version: 6.00 Build 0)  -->
<!DOCTYPE svg PUBLIC "-//W3C//DTD SVG 1.1//EN" "http://www.w3.org/Graphics/SVG/1.1/DTD/svg11.dtd">
<svg version="1.1" id="Layer_1" xmlns="http://www.w3.org/2000/svg" xmlns:xlink="http://www.w3.org/1999/xlink" x="0px" y="0px"
	 width="145.5px" height="145.5px" viewBox="0 0 145.5 145.5" enable-background="new 0 0 145.5 145.5" xml:space="preserve">
<g>
	<polygon fill="#CCCCCC" points="101.674,96.306 144.093,56.002 117.635,28.151 	"/>
	<polygon fill="#CCCCCC" points="87.169,53.337 87.977,55.85 98.541,88.837 111.5,33.499 112.488,29.285 113.422,25.298 
		113.271,25.262 75.68,16.458 75.541,17.045 86.363,50.826 	"/>
	<polygon fill="#CCCCCC" points="72.025,21.64 70.616,17.242 70.218,16 33.303,27.826 34.657,32.049 60.984,58.375 62.96,60.354 
		64.937,62.331 69.477,66.872 71.158,68.552 72.838,70.231 94.439,91.834 94.479,91.719 84.148,59.485 83.348,56.972 82.539,54.46 
		73.438,26.041 	"/>
	<path fill="#CCCCCC" d="M29.028,32.157l-0.068,0.066L1.618,59.565l48.326,48.327l1.976,1.978l1.978,1.978l0.841,0.84l0.605,0.607
		l2.527,2.525l0.537,0.535l1.988,1.99l1.684,1.686l1.888,1.884l1.76,1.763l1.761,1.76l2.655,2.656l8.488-8.49l0.19-0.188
		l0.371-0.371l1.875-1.874l0.953-0.954l1.297-1.297l0.938-0.938l0.594-0.594l5.03-5.031l0.259-0.258l3.604-3.606l2.207-2.206
		l1.397-1.396l0.204-0.205l-0.108-0.109l-0.885-0.887l-1.016-1.014l-1.896-1.897L71.117,74.245l-1.681-1.68l-1.68-1.679
		l-3.453-3.455l-1.978-1.977l-1.977-1.977L36.239,39.368l-3.67-3.67L29.028,32.157z"/>
</g>
<circle fill="#A7E4C3" stroke="#FFFFFF" stroke-width="0.75" stroke-miterlimit="10" cx="73.206" cy="104.166" r="4.86"/>
</svg>
