<?xml version="1.0" encoding="utf-8"?>
<!-- Generator: Adobe Illustrator 15.0.0, SVG Export Plug-In . SVG Version: 6.00 Build 0)  -->
<!DOCTYPE svg PUBLIC "-//W3C//DTD SVG 1.1//EN" "http://www.w3.org/Graphics/SVG/1.1/DTD/svg11.dtd">
<svg version="1.1" id="Layer_1" xmlns="http://www.w3.org/2000/svg" xmlns:xlink="http://www.w3.org/1999/xlink" x="0px" y="0px"
	 width="145.5px" height="145.5px" viewBox="0 0 145.5 145.5" enable-background="new 0 0 145.5 145.5" xml:space="preserve">
<g>
	<path fill="#CCCCCC" d="M49.601,27.469c4.716,0.494,9.805,2.509,13.58,5.721c-0.885-2.639-0.974-5.244-0.401-6.795
		c0.343-0.925,0.6-1.959,0.395-3.047c-0.713-4.062-5.03-7.346-9.72-7.346c-4.662,0-7.857,3.284-7.13,7.346
		c0.015,0.059,0.052,0.116,0.066,0.173c0.037,0.094-3.666,0.794-6.946,3.693c-0.272,0.241-0.728,0.772-1.253,1.411
		C41.192,27.594,44.953,26.999,49.601,27.469z"/>
	<path fill="#CCCCCC" d="M139.616,74.578c-0.14-0.316-0.286-0.625-0.437-0.934c-0.236-0.509-2.902-4.333-5.935-8.55
		c0,0-11.261-16.651-19.336-27.957c-1.897-1.938-6.91-7.012-17.394-5.925c-5.926,0.618-12.865,4.141-15.109,9.539
		c-0.299,2.013-0.598,3.641-0.861,3.641c-0.643,0-1.386-2.347-3.184-4.136c-1.062-1.055-2.674-1.709-4.297-1.709
		c-1.619,0-3.15,0.654-4.202,1.712c-1.8,1.796-2.902,4.133-3.534,4.133c-0.12,0-0.33-1.081-0.58-2.554
		c-1.683-6.022-9.208-9.969-15.538-10.626c-10.218-1.06-15.217,3.725-17.22,5.756C23.946,48.252,12.595,65.1,12.595,65.1
		c-3.038,4.208-5.7,8.042-5.936,8.548c-0.147,0.309-0.286,0.617-0.415,0.947C4.745,78.186,3.9,82.107,3.9,86.227
		c0,16.823,13.014,30.42,29.834,30.42c16.794,0,29.782-13.599,29.782-30.42v-4.666c0-2.584,1.966-6.34,4.317-7.213
		c1.324-0.5,3.147-0.771,4.774-0.771c1.624,0,3.913,0.271,5.234,0.771c2.354,0.873,4.479,4.629,4.479,7.213c0,2.582,0,4.666,0,4.666
		c0,16.823,13.005,30.42,29.795,30.42c16.791,0,29.812-13.599,29.812-30.42C141.927,82.107,141.107,78.186,139.616,74.578z
		 M72.768,64.252c-4.524,0-8.298-3.273-5.789-5.789c1.487-1.482,3.529-2.4,5.803-2.4c2.252,0,4.29,0.918,5.771,2.4
		C81.066,60.973,77.286,64.252,72.768,64.252z M112.412,106.76c-11.618,0-21.088-9.47-21.088-21.076
		c0-11.623,9.484-21.078,21.088-21.078c11.63,0,21.062,9.455,21.062,21.078C133.471,97.29,124.038,106.76,112.412,106.76z"/>
	<path fill="#CCCCCC" d="M82.667,33.089c3.765-3.155,8.798-5.133,13.462-5.624c4.68-0.474,8.46,0.136,11.469,1.181
		c-0.58-0.714-1.076-1.293-1.363-1.541c-3.219-2.81-6.815-3.495-6.791-3.589c0.021-0.057,0.035-0.114,0.053-0.173
		C100.219,19.284,96.998,16,92.3,16c-4.668,0-9.058,3.284-9.78,7.346c-0.199,1.084-0.097,2.118,0.233,3.047
		C83.316,27.932,83.501,30.491,82.667,33.089z"/>
</g>
<path fill="#A7E4C3" d="M33.848,108.296c-11.902,0-21.54-9.671-21.54-21.552c0-11.873,9.638-21.531,21.54-21.531
	c11.867,0,21.527,9.658,21.527,21.531C55.379,98.621,45.715,108.296,33.848,108.296z"/>
<path fill="#A7E4C3" d="M112.55,107.296c-11.901,0-21.541-9.671-21.541-21.552c0-11.873,9.64-21.531,21.541-21.531
	c11.865,0,21.525,9.658,21.525,21.531C134.078,97.621,124.415,107.296,112.55,107.296z"/>
</svg>
