<?xml version="1.0" encoding="utf-8"?>
<!-- Generator: Adobe Illustrator 15.0.0, SVG Export Plug-In . SVG Version: 6.00 Build 0)  -->
<!DOCTYPE svg PUBLIC "-//W3C//DTD SVG 1.1//EN" "http://www.w3.org/Graphics/SVG/1.1/DTD/svg11.dtd">
<svg version="1.1" id="Layer_1" xmlns="http://www.w3.org/2000/svg" xmlns:xlink="http://www.w3.org/1999/xlink" x="0px" y="0px"
	 width="145.5px" height="145.5px" viewBox="0 -45.5 145.5 145.5" enable-background="new 0 -45.5 145.5 145.5"
	 xml:space="preserve">
<g>
	<polygon fill="#CCCCCC" points="101.674,56.517 144.093,16.214 117.635,-11.637 	"/>
	<polygon fill="#CCCCCC" points="87.169,13.549 87.976,16.062 98.541,49.049 111.5,-6.289 112.489,-10.503 113.422,-14.49 
		113.271,-14.526 75.679,-23.33 75.541,-22.743 86.364,11.038 	"/>
	<polygon fill="#CCCCCC" points="72.025,-18.148 70.616,-22.546 70.218,-23.788 33.303,-11.962 34.657,-7.739 60.984,18.587 
		62.96,20.566 64.937,22.543 69.477,27.084 71.158,28.764 72.838,30.443 94.439,52.046 94.478,51.93 84.149,19.697 83.347,17.184 
		82.539,14.672 73.437,-13.747 	"/>
	<path fill="#CCCCCC" d="M29.028-7.631L28.96-7.565L1.618,19.777l48.326,48.327l1.976,1.977l1.978,1.977l0.841,0.84l0.605,0.608
		l2.527,2.525l0.537,0.536l1.988,1.99l1.684,1.685l1.888,1.884l1.76,1.763l1.761,1.759l2.655,2.656l8.488-8.489l0.19-0.189
		l0.371-0.371l1.875-1.874l0.953-0.954l1.297-1.297l0.938-0.937l0.594-0.594l5.03-5.03l0.259-0.259l3.604-3.606l2.207-2.206
		l1.397-1.396l0.206-0.206l-0.11-0.109l-0.885-0.887l-1.015-1.013l-1.896-1.898L71.116,34.457l-1.681-1.68l-1.68-1.679l-3.453-3.455
		l-1.978-1.977l-1.977-1.977L36.239-0.42l-3.67-3.67L29.028-7.631z"/>
</g>
<circle fill="#FCCD7A" stroke="#FFFFFF" stroke-width="0.75" stroke-miterlimit="10" cx="73.206" cy="64.378" r="4.86"/>
</svg>
