<?xml version="1.0" encoding="utf-8"?>
<!-- Generator: Adobe Illustrator 15.0.0, SVG Export Plug-In . SVG Version: 6.00 Build 0)  -->
<!DOCTYPE svg PUBLIC "-//W3C//DTD SVG 1.1//EN" "http://www.w3.org/Graphics/SVG/1.1/DTD/svg11.dtd">
<svg version="1.1" id="Layer_1" xmlns="http://www.w3.org/2000/svg" xmlns:xlink="http://www.w3.org/1999/xlink" x="0px" y="0px"
	 width="145.5px" height="145.5px" viewBox="0 0 145.5 145.5" enable-background="new 0 0 145.5 145.5" xml:space="preserve">
<g>
	<path fill="#A7E4C3" d="M44.224,42.099h-33.95c-3.502,0-6.35,2.783-6.35,6.208v65.678c0,3.424,2.848,6.209,6.35,6.209h33.949
		c3.501,0,6.35-2.783,6.35-6.209V48.306C50.573,44.882,47.725,42.099,44.224,42.099z M46.365,113.984c0,1.105-0.961,2-2.141,2
		h-33.95c-1.181,0-2.141-0.895-2.141-2v-9.922h38.231v9.922H46.365z M46.365,106.572H8.133V55.194h38.231v51.378H46.365z
		 M46.365,50.986H8.133v-2.679c0-1.104,0.96-2,2.141-2h33.949c1.18,0,2.141,0.896,2.141,2v2.679H46.365z"/>
</g>
<path fill="#CCCCCC" d="M133.695,96.793c0,1.031-0.84,1.871-1.867,1.871H53.859v8.963h23.083v3.92H63.781
	c-2.471,0-4.48,2.01-4.48,4.48c0,2.469,2.01,4.48,4.48,4.48h35.005c2.469,0,4.479-2.014,4.479-4.48c0-2.473-2.013-4.48-4.479-4.48
	H85.904v-3.92h45.924c5.972,0,10.829-4.861,10.829-10.834V31.832c0-5.973-4.861-10.832-10.829-10.832H31.02
	c-5.973,0-10.83,4.862-10.83,10.834v8.02h8.961v-8.02c0-1.033,0.84-1.873,1.868-1.873h100.809c1.029,0,1.867,0.84,1.867,1.873"/>
<rect x="6.955" y="45.32" fill="#A7E4C3" width="40.512" height="7.655"/>
<rect x="6.955" y="105.062" fill="#A7E4C3" width="40.512" height="10.922"/>
<path fill="#FFFFFF" d="M27.622,107.414c2.58,0,4.671,2.09,4.671,4.67s-2.092,4.67-4.671,4.67c-2.578,0-4.669-2.09-4.669-4.67
	C22.952,109.504,25.043,107.414,27.622,107.414z"/>
</svg>
