<?xml version="1.0" encoding="utf-8"?>
<!-- Generator: Adobe Illustrator 15.0.0, SVG Export Plug-In . SVG Version: 6.00 Build 0)  -->
<!DOCTYPE svg PUBLIC "-//W3C//DTD SVG 1.1//EN" "http://www.w3.org/Graphics/SVG/1.1/DTD/svg11.dtd">
<svg version="1.1" id="Layer_1" xmlns="http://www.w3.org/2000/svg" xmlns:xlink="http://www.w3.org/1999/xlink" x="0px" y="0px"
	 width="145.5px" height="145.5px" viewBox="0 -45.5 145.5 145.5" enable-background="new 0 -45.5 145.5 145.5"
	 xml:space="preserve">
<g>
	<g>
		<path fill="#CCCCCC" stroke="#CCCCCC" stroke-width="2" stroke-miterlimit="10" d="M73.25,99.5C35.618,99.5,5,68.884,5,31.25
			C5-6.383,35.618-37,73.25-37c37.631,0,68.25,30.617,68.25,68.25C141.5,68.884,110.881,99.5,73.25,99.5z M73.25-32.596
			c-35.207,0-63.846,28.641-63.846,63.846c0,35.204,28.639,63.847,63.846,63.847c35.205,0,63.847-28.643,63.847-63.847
			C137.097-3.955,108.455-32.596,73.25-32.596z"/>
	</g>
</g>
<g>
	<polygon fill="#FCCD7A" stroke="#FCCD7A" stroke-width="2" stroke-miterlimit="10" points="60.633,60.361 36.235,35.963 
		39.347,32.851 60.633,54.135 106.962,7.808 110.075,10.921 	"/>
</g>
</svg>
