<?xml version="1.0" encoding="utf-8"?>
<!-- Generator: Adobe Illustrator 15.0.0, SVG Export Plug-In . SVG Version: 6.00 Build 0)  -->
<!DOCTYPE svg PUBLIC "-//W3C//DTD SVG 1.1//EN" "http://www.w3.org/Graphics/SVG/1.1/DTD/svg11.dtd">
<svg version="1.1" id="Layer_1" xmlns="http://www.w3.org/2000/svg" xmlns:xlink="http://www.w3.org/1999/xlink" x="0px" y="0px"
	 width="33.951px" height="33.667px" viewBox="237.549 231.5 33.951 33.667" enable-background="new 237.549 231.5 33.951 33.667"
	 xml:space="preserve">
<g>
	<path d="M261.425,241.667l-10.763,10.84l-4.07-4.071l-1.535,1.536l4.83,4.828c0.215,0.217,0.509,0.389,0.768,0.389
		s0.543-0.172,0.759-0.379l11.53-11.591L261.425,241.667z"/>
	<g>
		<path d="M254,232.5c-8.575,0-15.523,6.948-15.523,15.523s6.948,15.522,15.523,15.522s15.522-6.947,15.522-15.522
			S262.575,232.5,254,232.5z M254,262.256c-7.844,0-14.232-6.382-14.232-14.232c0-7.844,6.381-14.232,14.232-14.232
			c7.843,0,14.232,6.381,14.232,14.232C268.232,255.866,261.843,262.256,254,262.256z"/>
	</g>
</g>
</svg>
