<?xml version="1.0" encoding="utf-8"?>
<!-- Generator: Adobe Illustrator 15.0.0, SVG Export Plug-In . SVG Version: 6.00 Build 0)  -->
<!DOCTYPE svg PUBLIC "-//W3C//DTD SVG 1.1//EN" "http://www.w3.org/Graphics/SVG/1.1/DTD/svg11.dtd">
<svg version="1.1" id="Layer_1" xmlns="http://www.w3.org/2000/svg" xmlns:xlink="http://www.w3.org/1999/xlink" x="0px" y="0px"
	 width="283px" height="230.357px" viewBox="0 0 283 230.357" enable-background="new 0 0 283 230.357" xml:space="preserve">
<g>
	<path fill="#231F20" d="M9.452,67.653c5.482,0,8.299,3.278,8.299,9.016v1.127h-5.327v-1.485c0-2.562-1.025-3.535-2.817-3.535
		c-1.793,0-2.818,0.973-2.818,3.535c0,7.376,11.014,8.76,11.014,19.005c0,5.737-2.868,9.016-8.4,9.016
		c-5.533,0-8.401-3.278-8.401-9.016v-2.204h5.327v2.562c0,2.562,1.127,3.483,2.92,3.483c1.793,0,2.92-0.922,2.92-3.483
		c0-7.377-11.014-8.759-11.014-19.005C1.153,70.931,3.971,67.653,9.452,67.653z"/>
	<path fill="#231F20" d="M20.568,76.669c0-5.738,3.022-9.016,8.555-9.016c5.532,0,8.555,3.278,8.555,9.016v18.646
		c0,5.737-3.023,9.016-8.555,9.016c-5.533,0-8.555-3.278-8.555-9.016V76.669z M26.203,95.674c0,2.562,1.126,3.534,2.92,3.534
		c1.792,0,2.919-0.973,2.919-3.534V76.311c0-2.562-1.127-3.535-2.919-3.535c-1.793,0-2.92,0.973-2.92,3.535V95.674z"/>
	<path fill="#231F20" d="M46.949,83.995h7.274v5.122h-7.274v14.805h-5.635V68.063h14.907v5.123h-9.272V83.995z"/>
	<path fill="#231F20" d="M57.297,68.063h17.417v5.123h-5.891v30.735h-5.634V73.186h-5.891V68.063z"/>
	<path fill="#231F20" d="M89.67,84.814l-2.049,19.107h-7.735l-3.996-35.858h5.481l3.022,28.276l2.715-28.276h5.43l2.817,28.481
		l2.92-28.481h4.918l-3.996,35.858H91.72L89.67,84.814z"/>
	<path fill="#231F20" d="M123.479,103.921h-5.686l-0.974-6.505h-6.915l-0.974,6.505h-5.174l5.738-35.858h8.247L123.479,103.921z
		 M110.622,92.549h5.43l-2.715-18.134L110.622,92.549z"/>
	<path fill="#231F20" d="M137.874,103.921c-0.307-0.922-0.513-1.485-0.513-4.405V93.88c0-3.328-1.126-4.558-3.688-4.558h-1.946
		v14.599h-5.635V68.063h8.503c5.839,0,8.349,2.715,8.349,8.248v2.817c0,3.688-1.178,6.096-3.688,7.274
		c2.817,1.178,3.74,3.893,3.74,7.631v5.534c0,1.742,0.052,3.021,0.614,4.354H137.874z M131.727,73.186v11.013h2.202
		c2.1,0,3.381-0.922,3.381-3.791v-3.534c0-2.562-0.871-3.688-2.869-3.688H131.727z"/>
	<path fill="#231F20" d="M151.295,83.175h7.734v5.122h-7.734v10.502h9.731v5.122h-15.367V68.063h15.367v5.123h-9.731V83.175z"/>
	<path fill="#231F20" d="M179.814,67.426c0.46,0,0.688,0.066,0.688,0.197l-1.062,5.463c-0.445,0.21-0.858,0.314-1.237,0.314h-0.512
		c-0.288,0-0.518-1.054-0.688-3.164c-2.162,0.407-3.865,0.878-5.108,1.415c-1.954,1.036-3.258,2.346-3.912,3.931
		c-0.838,1.703-1.257,4.297-1.257,7.782v2.614c0,5.227,0.188,8.222,0.569,8.981c0.642,2.032,1.677,3.44,3.104,4.226
		c1.206,0.669,2.6,1.003,4.187,1.003c1.494,0,3.42-0.373,5.778-1.121c0.417,0.865,0.628,1.508,0.628,1.926v0.256
		c0,0.617-0.642,1.068-1.926,1.356c-2.214,0.878-4.311,1.316-6.288,1.316c-5.099,0-8.169-3.485-9.218-10.455
		c-0.209-1.809-0.315-3.577-0.315-5.306c0-3.59,0.413-8.26,1.239-14.013c0.131-0.878,0.856-2.018,2.181-3.419
		C169.312,68.526,173.695,67.426,179.814,67.426z"/>
	<path fill="#231F20" d="M183.196,67.681h0.608c0.551,0,0.931,0.04,1.141,0.118l0.55-0.059c3.432,0,6.741,0.793,9.925,2.378
		c2.489,1.585,3.734,3.557,3.734,5.916v0.629c0,3.459-2.098,6.165-6.29,8.117l-0.688,0.236c4.153,9.735,6.229,15.309,6.229,16.724
		v0.177c-0.208,1.049-0.896,1.572-2.063,1.572h-0.177c-0.171-0.091-0.839-1.506-2.004-4.245l-6.054-13.167l-1.671,0.196
		l0.119,17.275c0,0.249-0.289,0.373-0.865,0.373h-0.257c-1.047,0-2.003-0.144-2.868-0.433l0.059-0.373l0.139-35.12
		C182.815,67.786,182.96,67.681,183.196,67.681z M186.241,71.729l0.139,11.93c0.746,0,2.449-0.648,5.108-1.946
		c2.162-1.441,3.243-3,3.243-4.677v-0.433c0-2.477-2.457-4.081-7.369-4.814L186.241,71.729z"/>
	<path fill="#231F20" d="M201.708,67.583c0.642,0,1.494,0.125,2.556,0.374l0.058,9.119v25.411c0,0.957-0.208,1.435-0.628,1.435
		h-0.491c-1.022,0-1.848-0.183-2.478-0.551V67.957C200.844,67.708,201.17,67.583,201.708,67.583z"/>
	<path fill="#231F20" d="M215.15,67.465c4.429,0,7.175,1.016,8.236,3.046c0.864,1.232,1.518,3.367,1.963,6.407
		c0.643,4.573,0.965,8.313,0.965,11.222v1.002c0,7.115-2.136,11.786-6.408,14.012c-1.231,0.511-2.391,0.767-3.478,0.767h-0.394
		c-3.275,0-5.936-2.811-7.979-8.432c-1.442-4.898-2.163-9.655-2.163-14.267c0-7.18,2.307-11.641,6.918-13.384
		C213.861,67.59,214.642,67.465,215.15,67.465z M209.452,79.886c0,4.665,0.798,9.591,2.396,14.778
		c1.153,3.041,2.805,4.561,4.953,4.561c2.174-0.236,3.381-0.616,3.616-1.141c0.63-0.433,1.179-1.447,1.65-3.046
		c0.498-1.663,0.748-3.989,0.748-6.977v-0.118c0-6.236-0.59-10.907-1.769-14.012c-1.09-1.939-2.504-2.909-4.246-2.909h-0.197
		c-1.743,0.158-3.498,0.938-5.267,2.339c-0.812,0.655-1.382,1.795-1.709,3.42C209.511,78.012,209.452,79.047,209.452,79.886z"/>
	<path fill="#231F20" d="M228.83,67.367c0.982,0.079,1.827,0.249,2.535,0.511l-0.196,32.644c6.313-0.512,10.736-0.832,13.264-0.963
		c0.159,0,0.283,0.59,0.375,1.768c-0.027,1.311-0.112,1.966-0.257,1.966l-16.605,0.629l-0.06-0.06V68.114
		C227.886,67.616,228.2,67.367,228.83,67.367z"/>
	<path fill="#231F20" d="M247.323,67.367c0.982,0.079,1.827,0.249,2.535,0.511l-0.196,32.644c6.314-0.512,10.736-0.832,13.264-0.963
		c0.159,0,0.283,0.59,0.375,1.768c-0.027,1.311-0.112,1.966-0.256,1.966l-16.606,0.629l-0.06-0.06V68.114
		C246.379,67.616,246.693,67.367,247.323,67.367z"/>
	<path fill="#231F20" d="M270.909,67.465c4.429,0,7.173,1.016,8.233,3.046c0.865,1.232,1.521,3.367,1.966,6.407
		c0.642,4.573,0.963,8.313,0.963,11.222v1.002c0,7.115-2.136,11.786-6.406,14.012c-1.231,0.511-2.391,0.767-3.479,0.767h-0.393
		c-3.275,0-5.936-2.811-7.979-8.432c-1.441-4.898-2.162-9.655-2.162-14.267c0-7.18,2.305-11.641,6.918-13.384
		C269.617,67.59,270.397,67.465,270.909,67.465z M265.209,79.886c0,4.665,0.8,9.591,2.398,14.778
		c1.151,3.041,2.803,4.561,4.952,4.561c2.175-0.236,3.38-0.616,3.617-1.141c0.627-0.433,1.179-1.447,1.65-3.046
		c0.497-1.663,0.746-3.989,0.746-6.977v-0.118c0-6.236-0.59-10.907-1.77-14.012c-1.087-1.939-2.503-2.909-4.244-2.909h-0.196
		c-1.743,0.158-3.498,0.938-5.268,2.339c-0.812,0.655-1.382,1.795-1.708,3.42C265.269,78.012,265.209,79.047,265.209,79.886z"/>
</g>
</svg>
